<svg t="1612259576416" class="icon" viewBox="0 0 1024 1024" version="1.1" xmlns="http://www.w3.org/2000/svg" p-id="772" width="200" height="200"><path d="M695.3756613 608.06233439l221.81826981 258.8468973A88.37381268 88.37381268 0 0 1 850.08874981 1012.78493895H556.18690634v-265.12143802h-88.37381268v265.12143802h-293.90184347a88.37381268 88.37381268 0 0 1-67.1051813-145.87570726l221.84772729-258.81743983A351.84560574 351.84560574 0 0 0 512 659.28968825c67.16409763 0 129.90950463-18.70579081 183.3756613-51.22735386zM512 11.21506105c162.69618913 0 294.57937513 131.88318599 294.57937513 294.57937651s-131.88318599 294.57937513-294.57937513 294.57937512-294.57937513-131.88318599-294.57937513-294.57937512S349.30381087 11.21506105 512 11.21506105z" p-id="773"></path></svg>
